<?xml version="1.0" encoding="UTF-8" standalone="no"?>
<!-- Generator: Adobe Illustrator 18.1.1, SVG Export Plug-In . SVG Version: 6.00 Build 0)  -->

<svg
   xmlns:dc="http://purl.org/dc/elements/1.1/"
   xmlns:cc="http://creativecommons.org/ns#"
   xmlns:rdf="http://www.w3.org/1999/02/22-rdf-syntax-ns#"
   xmlns:svg="http://www.w3.org/2000/svg"
   xmlns="http://www.w3.org/2000/svg"
   xmlns:sodipodi="http://sodipodi.sourceforge.net/DTD/sodipodi-0.dtd"
   xmlns:inkscape="http://www.inkscape.org/namespaces/inkscape"
   version="1.1"
   id="Capa_1"
   x="0px"
   y="0px"
   viewBox="0 0 372.166 372.166"
   style="enable-background:new 0 0 372.166 372.166;"
   xml:space="preserve"
   inkscape:version="0.48.3.1 r9886"
   width="100%"
   height="100%"
   sodipodi:docname="notepad18.svg"><metadata
   id="metadata3073"><rdf:RDF><cc:Work
       rdf:about=""><dc:format>image/svg+xml</dc:format><dc:type
         rdf:resource="http://purl.org/dc/dcmitype/StillImage" /></cc:Work></rdf:RDF></metadata><defs
   id="defs3071" /><sodipodi:namedview
   pagecolor="#ffffff"
   bordercolor="#666666"
   borderopacity="1"
   objecttolerance="10"
   gridtolerance="10"
   guidetolerance="10"
   inkscape:pageopacity="0"
   inkscape:pageshadow="2"
   inkscape:window-width="1920"
   inkscape:window-height="881"
   id="namedview3069"
   showgrid="false"
   inkscape:zoom="0.63412563"
   inkscape:cx="186.083"
   inkscape:cy="186.083"
   inkscape:window-x="0"
   inkscape:window-y="27"
   inkscape:window-maximized="1"
   inkscape:current-layer="Capa_1" />
<g
   id="g3022"
   style="fill:#803300">
	<g
   id="Layer_5_14_"
   style="fill:#803300">
		<g
   id="g3025"
   style="fill:#803300">
			<path
   d="M311.301,37.38h-63.969c-3,0-3.287-2.445-3.865-3.57c-2.894-5.63-8.752-9.495-15.508-9.495h-15.938     C211.149,10.762,199.852,0,186.082,0s-25.067,10.762-25.939,24.315h-15.938c-6.675,0-12.474,3.772-15.403,9.294     c-0.627,1.183-1.469,3.771-4.219,3.771H60.864c-9.229,0-16.779,7.551-16.779,16.779v301.229c0,9.228,7.55,16.778,16.779,16.778     h250.438c9.228,0,16.779-7.55,16.779-16.778V54.159C328.08,44.931,320.529,37.38,311.301,37.38z M303.08,330.388     c0,9.229-7.551,16.779-16.779,16.779H85.863c-9.229,0-16.779-7.55-16.779-16.779V79.159c0-9.228,7.55-16.779,16.779-16.779     h39.094c2.75,0,3.173,2.476,3.762,3.613c2.902,5.607,8.747,9.452,15.485,9.452h83.755c7.21,0,13.396-4.401,16.051-10.654     c0.33-0.777,0.821-2.412,3.571-2.412H286.3c9.228,0,16.779,7.551,16.779,16.779L303.08,330.388L303.08,330.388z"
   id="path3027"
   style="fill:#803300" />
			<path
   d="M97.543,122.5h124c3.866,0,7-3.134,7-7s-3.134-7-7-7h-124c-3.866,0-7,3.134-7,7S93.677,122.5,97.543,122.5z"
   id="path3029"
   style="fill:#803300" />
			<path
   d="M97.543,214.416h124c3.866,0,7-3.133,7-7c0-3.866-3.134-7-7-7h-124c-3.866,0-7,3.134-7,7     C90.543,211.283,93.677,214.416,97.543,214.416z"
   id="path3031"
   style="fill:#803300" />
			<path
   d="M253.043,154.458h-155.5c-3.866,0-7,3.134-7,7s3.134,7,7,7h155.5c3.866,0,7-3.134,7-7S256.91,154.458,253.043,154.458z"
   id="path3033"
   style="fill:#803300" />
			<path
   d="M253.043,246.375h-155.5c-3.866,0-7,3.134-7,7s3.134,7,7,7h155.5c3.866,0,7-3.134,7-7S256.91,246.375,253.043,246.375z"
   id="path3035"
   style="fill:#803300" />
			<path
   d="M253.043,292.333h-43.965c-3.866,0-7,3.134-7,7s3.134,7,7,7h43.965c3.866,0,7-3.134,7-7S256.91,292.333,253.043,292.333z     "
   id="path3037"
   style="fill:#803300" />
		</g>
	</g>
</g>
<g
   id="g3039"
   style="fill:#803300">
</g>
<g
   id="g3041"
   style="fill:#803300">
</g>
<g
   id="g3043"
   style="fill:#803300">
</g>
<g
   id="g3045"
   style="fill:#803300">
</g>
<g
   id="g3047"
   style="fill:#803300">
</g>
<g
   id="g3049"
   style="fill:#803300">
</g>
<g
   id="g3051"
   style="fill:#803300">
</g>
<g
   id="g3053"
   style="fill:#803300">
</g>
<g
   id="g3055"
   style="fill:#803300">
</g>
<g
   id="g3057"
   style="fill:#803300">
</g>
<g
   id="g3059"
   style="fill:#803300">
</g>
<g
   id="g3061"
   style="fill:#803300">
</g>
<g
   id="g3063"
   style="fill:#803300">
</g>
<g
   id="g3065"
   style="fill:#803300">
</g>
<g
   id="g3067"
   style="fill:#803300">
</g>
</svg>